<svg width="190" height="153" viewBox="0 0 190 153" fill="none" xmlns="http://www.w3.org/2000/svg">
<path d="M23.3819 152.611H6.6665C6.6665 134.894 13.4792 111.492 32.6823 103.829C42.1875 100.037 52.8071 101.153 61.0955 106.826C61.3545 107.008 61.6135 107.19 61.8725 107.372C65.8421 97.0272 72.6969 87.8533 83.4068 83.5818C92.912 79.7897 103.532 80.9061 111.82 86.5791C112.085 86.7612 112.344 86.9432 112.597 87.1313C116.567 76.7864 123.421 67.6124 134.131 63.341C143.637 59.5489 154.256 60.6653 162.544 66.3383C170.815 71.9992 175.555 81.3066 175.555 91.882H158.84C158.84 86.9068 156.822 82.7809 153.154 80.269C149.455 77.7389 144.648 77.2596 140.293 78.9949C132.848 81.9679 124.837 93.5991 124.837 112.123H108.122C108.122 107.142 106.104 103.022 102.429 100.51C98.7308 97.9798 93.924 97.5005 89.5689 99.2357C82.1238 102.209 74.1124 113.84 74.1124 132.364H57.397C57.397 127.388 55.3791 123.263 51.7108 120.751C48.0123 118.221 43.2055 117.741 38.8504 119.477C31.4053 122.45 23.394 134.081 23.394 152.605L23.3819 152.611Z" fill="url(#paint0_linear_1_889)"/>
<path d="M24.7723 10.2114C26.0275 10.2114 27.1447 10.4623 28.1175 10.9639C29.0902 11.4656 29.8496 12.2307 30.4019 13.2654C30.9542 14.3001 31.2304 15.6169 31.2304 17.2286V26.3088H26.63V17.9372C26.63 16.6579 26.3664 15.7173 25.8455 15.109C25.3246 14.5007 24.5903 14.1935 23.6489 14.1935C22.9586 14.1935 22.3498 14.344 21.8226 14.6512C21.2892 14.9585 20.8812 15.41 20.5988 16.0057C20.3164 16.6078 20.172 17.3853 20.172 18.3511V26.3088H15.5717V17.9372C15.5717 16.6579 15.3081 15.7173 14.7872 15.109C14.2663 14.5007 13.5132 14.1935 12.5278 14.1935C11.8563 14.1935 11.2601 14.344 10.7266 14.6512C10.1932 14.9585 9.78522 15.41 9.49025 16.0057C9.19528 16.6078 9.04465 17.3853 9.04465 18.3511V26.3088H4.44434V10.4497H8.83754V14.7516L8.00911 13.5162C8.54257 12.4376 9.31452 11.6161 10.3375 11.058C11.3605 10.4999 12.509 10.2177 13.7893 10.2177C15.2454 10.2177 16.5194 10.5877 17.624 11.3214C18.7223 12.0613 19.4503 13.1838 19.808 14.6951L18.1888 14.2499C18.7223 13.0333 19.5633 12.0551 20.7243 11.3151C21.8854 10.5814 23.2347 10.2114 24.7661 10.2114H24.7723Z" fill="white"/>
<path d="M38.2795 8.23605C37.4134 8.23605 36.7167 7.99148 36.1833 7.49608C35.6498 7.00068 35.3862 6.39868 35.3862 5.67125C35.3862 4.94383 35.6498 4.33555 36.1833 3.84642C36.7167 3.35729 37.4134 3.10645 38.2795 3.10645C39.1456 3.10645 39.8171 3.33847 40.3568 3.80252C40.8966 4.26656 41.1664 4.85603 41.1664 5.58346C41.1664 6.34851 40.9028 6.98187 40.3694 7.48354C39.8359 7.98521 39.1393 8.23605 38.2732 8.23605H38.2795ZM35.9762 26.3025V10.4434H40.5765V26.3025H35.9762Z" fill="white"/>
<path d="M53.1147 26.5409C51.4013 26.5409 49.8825 26.196 48.5583 25.4936C47.2278 24.7976 46.186 23.8256 45.4328 22.5902C44.6734 21.3548 44.2969 19.9501 44.2969 18.3761C44.2969 16.8021 44.6734 15.3787 45.4328 14.1621C46.1922 12.9455 47.234 11.9798 48.5583 11.2712C49.8825 10.5626 51.4076 10.2114 53.1147 10.2114C54.8217 10.2114 56.2464 10.5626 57.4953 11.2587C58.7443 11.9547 59.6417 12.9455 60.194 14.2185L56.6543 16.1625C56.2213 15.4163 55.7004 14.8707 55.0916 14.5258C54.4828 14.1809 53.8113 14.0116 53.0833 14.0116C52.3176 14.0116 51.621 14.1872 50.9871 14.5258C50.3595 14.8707 49.8574 15.3661 49.4809 16.012C49.1043 16.6642 48.9223 17.4481 48.9223 18.3699C48.9223 19.2917 49.1106 20.0818 49.4809 20.7403C49.8511 21.3987 50.3532 21.9004 50.9871 22.2453C51.621 22.5902 52.3176 22.7595 53.0833 22.7595C53.849 22.7595 54.4766 22.5902 55.0916 22.2453C55.7004 21.9004 56.2213 21.3485 56.6543 20.5772L60.194 22.5212C59.6417 23.7754 58.7443 24.7599 57.4953 25.4685C56.2464 26.1771 54.7841 26.5283 53.1147 26.5283V26.5409Z" fill="white"/>
<path d="M63.4697 26.3025V10.4434H67.8629V14.9521L67.2415 13.6227C67.7122 12.5002 68.4716 11.6537 69.5135 11.0767C70.5553 10.4998 71.823 10.2051 73.3167 10.2051V14.4756C73.141 14.4379 72.9653 14.4066 72.8021 14.3878C72.6326 14.369 72.4695 14.3564 72.3126 14.3564C71.0134 14.3564 69.9842 14.7201 69.2122 15.4476C68.4465 16.175 68.0637 17.2975 68.0637 18.8088V26.2962H63.4634L63.4697 26.3025Z" fill="white"/>
<path d="M84.0292 26.5408C82.3597 26.5408 80.8661 26.1896 79.5606 25.481C78.2552 24.7724 77.226 23.8067 76.4791 22.5776C75.7323 21.3485 75.3557 19.9501 75.3557 18.3761C75.3557 16.8021 75.726 15.3723 76.4791 14.1432C77.226 12.9141 78.2552 11.9547 79.5606 11.2523C80.8661 10.5562 82.3597 10.2051 84.0292 10.2051C85.6986 10.2051 87.2237 10.5562 88.5416 11.2523C89.8596 11.9484 90.8888 12.9141 91.642 14.1432C92.3888 15.3723 92.7654 16.7833 92.7654 18.3761C92.7654 19.9689 92.3888 21.3736 91.642 22.5901C90.8951 23.8067 89.8596 24.7724 88.5416 25.481C87.2237 26.1896 85.7174 26.5408 84.0292 26.5408ZM84.0292 22.7657C84.8137 22.7657 85.5103 22.5964 86.1065 22.2515C86.709 21.9066 87.186 21.3986 87.55 20.7339C87.914 20.0629 88.096 19.2791 88.096 18.3761C88.096 17.4731 87.914 16.6641 87.55 16.0182C87.186 15.3723 86.7027 14.8769 86.1065 14.532C85.504 14.1871 84.8262 14.0178 84.0543 14.0178C83.2823 14.0178 82.5982 14.1934 81.9895 14.532C81.3807 14.8769 80.8912 15.3723 80.5272 16.0182C80.1631 16.6704 79.9811 17.4542 79.9811 18.3761C79.9811 19.2979 80.1631 20.0629 80.5272 20.7339C80.8912 21.3986 81.3744 21.9066 81.9895 22.2515C82.5982 22.5964 83.276 22.7657 84.0229 22.7657H84.0292Z" fill="white"/>
<path d="M116.738 10.2114C117.994 10.2114 119.111 10.4623 120.084 10.9639C121.056 11.4656 121.816 12.2307 122.368 13.2654C122.92 14.3001 123.196 15.6169 123.196 17.2286V26.3088H118.596V17.9372C118.596 16.6579 118.333 15.7173 117.812 15.109C117.291 14.5007 116.556 14.1935 115.615 14.1935C114.925 14.1935 114.316 14.344 113.789 14.6512C113.255 14.9585 112.847 15.41 112.565 16.0057C112.282 16.6078 112.138 17.3853 112.138 18.3511V26.3088H107.538V17.9372C107.538 16.6579 107.274 15.7173 106.753 15.109C106.232 14.5007 105.479 14.1935 104.494 14.1935C103.822 14.1935 103.226 14.344 102.693 14.6512C102.159 14.9585 101.751 15.41 101.456 16.0057C101.161 16.6078 101.011 17.3853 101.011 18.3511V26.3088H96.4104V10.4497H100.804V14.7516L99.9752 13.5162C100.509 12.4376 101.281 11.6161 102.304 11.058C103.327 10.4999 104.475 10.2177 105.755 10.2177C107.211 10.2177 108.485 10.5877 109.59 11.3214C110.688 12.0613 111.416 13.1838 111.774 14.6951L110.155 14.2499C110.688 13.0333 111.529 12.0551 112.69 11.3151C113.851 10.5814 115.201 10.2114 116.732 10.2114H116.738Z" fill="white"/>
<path d="M135.592 26.5408C133.922 26.5408 132.429 26.1896 131.123 25.481C129.818 24.7724 128.788 23.8067 128.042 22.5776C127.295 21.3485 126.918 19.9501 126.918 18.3761C126.918 16.8021 127.288 15.3723 128.042 14.1432C128.788 12.9141 129.818 11.9547 131.123 11.2523C132.429 10.5562 133.922 10.2051 135.592 10.2051C137.261 10.2051 138.786 10.5562 140.104 11.2523C141.422 11.9484 142.451 12.9141 143.204 14.1432C143.951 15.3723 144.328 16.7833 144.328 18.3761C144.328 19.9689 143.951 21.3736 143.204 22.5901C142.458 23.8067 141.422 24.7724 140.104 25.481C138.786 26.1896 137.28 26.5408 135.592 26.5408ZM135.592 22.7657C136.376 22.7657 137.073 22.5964 137.669 22.2515C138.272 21.9066 138.748 21.3986 139.113 20.7339C139.477 20.0629 139.659 19.2791 139.659 18.3761C139.659 17.4731 139.477 16.6641 139.113 16.0182C138.748 15.3723 138.265 14.8769 137.669 14.532C137.067 14.1871 136.389 14.0178 135.617 14.0178C134.845 14.0178 134.161 14.1934 133.552 14.532C132.943 14.8769 132.454 15.3723 132.09 16.0182C131.726 16.6704 131.544 17.4542 131.544 18.3761C131.544 19.2979 131.726 20.0629 132.09 20.7339C132.454 21.3986 132.937 21.9066 133.552 22.2515C134.161 22.5964 134.839 22.7657 135.585 22.7657H135.592Z" fill="white"/>
<path d="M146.827 32.2599C146.099 32.2599 145.409 32.1847 144.762 32.0405C144.116 31.8962 143.564 31.6705 143.112 31.3757L144.348 28.0459C144.882 28.4159 145.528 28.604 146.294 28.604C146.884 28.604 147.342 28.4159 147.668 28.0459C147.995 27.6696 148.158 27.0802 148.158 26.2775V10.4497H152.758V26.2462C152.758 28.0898 152.243 29.5572 151.208 30.6358C150.179 31.7144 148.716 32.2599 146.827 32.2599ZM150.455 8.24239C149.589 8.24239 148.892 7.99783 148.359 7.50243C147.825 7.00702 147.562 6.40501 147.562 5.67759C147.562 4.95017 147.825 4.34189 148.359 3.85275C148.892 3.36362 149.589 3.11279 150.455 3.11279C151.321 3.11279 151.992 3.34482 152.532 3.80886C153.072 4.27291 153.342 4.86237 153.342 5.5898C153.342 6.35485 153.078 6.98821 152.545 7.48988C152.011 7.99155 151.315 8.24239 150.448 8.24239H150.455Z" fill="white"/>
<path d="M165.149 26.5408C163.48 26.5408 161.986 26.1896 160.681 25.481C159.375 24.7724 158.346 23.8067 157.599 22.5776C156.852 21.3485 156.476 19.9501 156.476 18.3761C156.476 16.8021 156.846 15.3723 157.599 14.1432C158.346 12.9141 159.375 11.9547 160.681 11.2523C161.986 10.5562 163.48 10.2051 165.149 10.2051C166.818 10.2051 168.344 10.5562 169.661 11.2523C170.979 11.9484 172.009 12.9141 172.762 14.1432C173.509 15.3723 173.885 16.7833 173.885 18.3761C173.885 19.9689 173.509 21.3736 172.762 22.5901C172.015 23.8067 170.979 24.7724 169.661 25.481C168.344 26.1896 166.837 26.5408 165.149 26.5408ZM165.149 22.7657C165.934 22.7657 166.63 22.5964 167.226 22.2515C167.829 21.9066 168.306 21.3986 168.67 20.7339C169.034 20.0629 169.216 19.2791 169.216 18.3761C169.216 17.4731 169.034 16.6641 168.67 16.0182C168.306 15.3723 167.823 14.8769 167.226 14.532C166.624 14.1871 165.946 14.0178 165.174 14.0178C164.402 14.0178 163.718 14.1934 163.109 14.532C162.501 14.8769 162.011 15.3723 161.647 16.0182C161.283 16.6704 161.101 17.4542 161.101 18.3761C161.101 19.2979 161.283 20.0629 161.647 20.7339C162.011 21.3986 162.494 21.9066 163.109 22.2515C163.718 22.5964 164.396 22.7657 165.143 22.7657H165.149Z" fill="white"/>
<path d="M181.936 19.9248C181.246 19.9248 180.606 19.7994 180.016 19.5548C179.426 19.3103 178.911 18.9591 178.472 18.5139C178.033 18.0686 177.688 17.5482 177.443 16.965C177.198 16.3755 177.079 15.7421 177.079 15.0586C177.079 14.3751 177.204 13.7417 177.449 13.1522C177.7 12.5628 178.045 12.0486 178.485 11.6033C178.924 11.1581 179.445 10.8132 180.041 10.5624C180.637 10.3115 181.278 10.1924 181.968 10.1924C182.658 10.1924 183.298 10.3115 183.895 10.5561C184.491 10.8007 185.005 11.1456 185.439 11.5845C185.878 12.0298 186.217 12.5377 186.462 13.1209C186.706 13.7041 186.826 14.3437 186.826 15.0335C186.826 15.7233 186.7 16.363 186.455 16.9587C186.204 17.5544 185.859 18.0686 185.413 18.5139C184.968 18.9591 184.447 19.3103 183.863 19.5548C183.28 19.7994 182.633 19.9248 181.943 19.9248H181.936ZM181.936 19.0281C182.495 19.0281 183.016 18.9215 183.499 18.7145C183.982 18.5076 184.397 18.2254 184.748 17.868C185.1 17.5105 185.376 17.0841 185.577 16.595C185.771 16.1058 185.872 15.5854 185.872 15.021C185.872 14.4566 185.777 13.9361 185.583 13.4533C185.388 12.9704 185.118 12.5502 184.773 12.1991C184.428 11.8479 184.02 11.572 183.543 11.3713C183.066 11.1769 182.545 11.0766 181.962 11.0766C181.378 11.0766 180.876 11.1769 180.393 11.3776C179.909 11.5783 179.489 11.8604 179.137 12.2242C178.78 12.5879 178.51 13.008 178.315 13.4846C178.121 13.9612 178.027 14.4817 178.027 15.0461C178.027 15.6104 178.121 16.1184 178.315 16.6075C178.51 17.0967 178.78 17.5168 179.131 17.8742C179.483 18.2317 179.897 18.5139 180.38 18.7145C180.863 18.9152 181.378 19.0155 181.93 19.0155L181.936 19.0281ZM179.84 17.73V12.3747H182.175C182.903 12.3747 183.468 12.544 183.882 12.8889C184.29 13.2338 184.497 13.6978 184.497 14.2747C184.497 14.8517 184.29 15.3471 183.882 15.6732C183.474 15.9992 182.903 16.1623 182.175 16.1623H181.278V17.7237H179.84V17.73ZM181.265 15.1213H182.081C182.401 15.1213 182.652 15.0461 182.834 14.8956C183.016 14.7451 183.104 14.5381 183.104 14.281C183.104 14.0239 183.016 13.8107 182.834 13.6665C182.652 13.5222 182.401 13.4533 182.081 13.4533H181.265V15.1213ZM183.242 17.73L181.918 15.6857H183.355L184.679 17.73H183.242Z" fill="white"/>
<defs>
<linearGradient id="paint0_linear_1_889" x1="38.4284" y1="129.166" x2="208.06" y2="48.8044" gradientUnits="userSpaceOnUse">
<stop stop-color="white" stop-opacity="0.6"/>
<stop offset="1" stop-color="white"/>
</linearGradient>
</defs>
</svg>
